<svg width="12" height="12" viewBox="0 0 12 12" fill="none" xmlns="http://www.w3.org/2000/svg">
<path d="M3.29454 10.9156C2.74375 10.2897 2.19298 9.63877 1.84246 8.86265C1.49197 8.03648 1.39182 7.08512 1.56708 6.18384C1.74233 5.28255 2.14289 4.43133 2.71873 3.7053C2.66866 4.3312 2.89399 4.98212 3.31959 5.45781C3.06922 4.25609 3.4698 2.95423 4.27094 2.00288C5.07207 1.05152 6.17366 0.4256 7.32529 0C6.74947 0.600858 6.67437 1.55221 6.89969 2.35337C7.12501 3.1545 7.6007 3.85551 8.0263 4.58154C8.4519 5.30757 8.85248 6.05864 8.87752 6.88482C9.10284 6.45922 9.35321 6.0336 9.50342 5.55794C9.65364 5.08225 9.72874 4.58154 9.60357 4.10585C10.0542 4.65665 10.3046 5.20742 10.4298 5.90843C10.5549 6.60944 10.5299 7.33547 10.4548 8.03647C10.3546 8.81259 10.1544 9.61373 9.72877 10.2646C9.22806 11.0408 8.4269 11.5915 7.55066 11.892C5.9984 12.1674 4.47121 11.9421 3.29454 10.9156Z" fill="#F3705A"/>
<path d="M5.19725 11.8419C7.25016 12.643 9.27806 10.2146 8.15145 8.33689C8.15145 8.31185 8.12641 8.31185 8.12641 8.28683C8.22656 9.31329 7.97619 10.0644 7.50051 10.49C7.75087 9.88913 7.57561 9.18812 7.27518 8.58726C6.97476 8.01145 6.54916 7.4857 6.22368 6.9349C5.89821 6.35909 5.64787 5.70814 5.79808 5.05722C5.19723 5.50786 4.77163 6.18383 4.59637 6.90986C4.42111 7.63589 4.52126 8.43705 4.84673 9.11301C4.4712 8.83763 4.19581 8.38698 4.17077 7.91129C3.77019 8.38698 3.51985 9.01286 3.54487 9.63876C3.54489 10.6152 4.32098 11.4914 5.19725 11.8419Z" fill="#FFD15C"/>
</svg>
