<svg width="50" height="48" viewBox="0 0 50 48" fill="none" xmlns="http://www.w3.org/2000/svg">
<path d="M2.28 32.32H0.04V31H6.14V32.32H3.9V38H2.28V32.32ZM10.604 38.12C9.87732 38.12 9.22065 37.9633 8.63398 37.65C8.05398 37.3367 7.59732 36.9067 7.26398 36.36C6.93732 35.8067 6.77398 35.1867 6.77398 34.5C6.77398 33.8133 6.93732 33.1967 7.26398 32.65C7.59732 32.0967 8.05398 31.6633 8.63398 31.35C9.22065 31.0367 9.87732 30.88 10.604 30.88C11.3307 30.88 11.984 31.0367 12.564 31.35C13.144 31.6633 13.6007 32.0967 13.934 32.65C14.2673 33.1967 14.434 33.8133 14.434 34.5C14.434 35.1867 14.2673 35.8067 13.934 36.36C13.6007 36.9067 13.144 37.3367 12.564 37.65C11.984 37.9633 11.3307 38.12 10.604 38.12ZM10.604 36.74C11.0173 36.74 11.3907 36.6467 11.724 36.46C12.0573 36.2667 12.3173 36 12.504 35.66C12.6973 35.32 12.794 34.9333 12.794 34.5C12.794 34.0667 12.6973 33.68 12.504 33.34C12.3173 33 12.0573 32.7367 11.724 32.55C11.3907 32.3567 11.0173 32.26 10.604 32.26C10.1907 32.26 9.81732 32.3567 9.48398 32.55C9.15065 32.7367 8.88732 33 8.69398 33.34C8.50732 33.68 8.41398 34.0667 8.41398 34.5C8.41398 34.9333 8.50732 35.32 8.69398 35.66C8.88732 36 9.15065 36.2667 9.48398 36.46C9.81732 36.6467 10.1907 36.74 10.604 36.74ZM18.9815 31C19.6015 31 20.1382 31.1033 20.5915 31.31C21.0515 31.5167 21.4048 31.81 21.6515 32.19C21.8982 32.57 22.0215 33.02 22.0215 33.54C22.0215 34.0533 21.8982 34.5033 21.6515 34.89C21.4048 35.27 21.0515 35.5633 20.5915 35.77C20.1382 35.97 19.6015 36.07 18.9815 36.07H17.5715V38H15.9515V31H18.9815ZM18.8915 34.75C19.3782 34.75 19.7482 34.6467 20.0015 34.44C20.2548 34.2267 20.3815 33.9267 20.3815 33.54C20.3815 33.1467 20.2548 32.8467 20.0015 32.64C19.7482 32.4267 19.3782 32.32 18.8915 32.32H17.5715V34.75H18.8915ZM29.898 31V38H28.278V35.13H25.098V38H23.478V31H25.098V33.76H28.278V31H29.898ZM36.4642 36.5H33.2142L32.5942 38H30.9342L34.0542 31H35.6542L38.7842 38H37.0842L36.4642 36.5ZM35.9542 35.27L34.8442 32.59L33.7342 35.27H35.9542ZM39.8105 31H41.4305V38H39.8105V31ZM47.8517 38L46.5017 36.05H46.4217H45.0117V38H43.3917V31H46.4217C47.0417 31 47.5784 31.1033 48.0317 31.31C48.4917 31.5167 48.8451 31.81 49.0917 32.19C49.3384 32.57 49.4617 33.02 49.4617 33.54C49.4617 34.06 49.3351 34.51 49.0817 34.89C48.8351 35.2633 48.4817 35.55 48.0217 35.75L49.5917 38H47.8517ZM47.8217 33.54C47.8217 33.1467 47.6951 32.8467 47.4417 32.64C47.1884 32.4267 46.8184 32.32 46.3317 32.32H45.0117V34.76H46.3317C46.8184 34.76 47.1884 34.6533 47.4417 34.44C47.6951 34.2267 47.8217 33.9267 47.8217 33.54Z" fill="#122947"/>
<path d="M6.24 44.08C6.616 44.08 6.936 44.316 6.932 44.744H5.548C5.588 44.316 5.884 44.08 6.24 44.08ZM7.264 45.324H6.872C6.792 45.56 6.584 45.728 6.256 45.728C5.884 45.728 5.572 45.484 5.544 45.04H7.296C7.304 44.964 7.308 44.9 7.308 44.82C7.308 44.22 6.892 43.772 6.256 43.772C5.616 43.772 5.172 44.208 5.172 44.9C5.172 45.596 5.632 46.036 6.256 46.036C6.8 46.036 7.152 45.724 7.264 45.324ZM9.05247 46H9.46447L8.75647 44.892L9.46047 43.808H9.08047L8.58447 44.62L8.06447 43.808H7.65247L8.36047 44.912L7.65247 46H8.03247L8.53247 45.184L9.05247 46ZM10.3065 44.212V43.808H9.94253V47.04H10.3065V45.596C10.4425 45.82 10.7265 46.036 11.1265 46.036C11.7145 46.036 12.1665 45.576 12.1665 44.896C12.1665 44.212 11.7145 43.772 11.1265 43.772C10.7265 43.772 10.4385 43.98 10.3065 44.212ZM11.7945 44.896C11.7945 45.412 11.4545 45.716 11.0505 45.716C10.6545 45.716 10.3065 45.416 10.3065 44.9C10.3065 44.392 10.6545 44.088 11.0505 44.088C11.4545 44.088 11.7945 44.38 11.7945 44.896ZM13.6977 44.08C14.0737 44.08 14.3937 44.316 14.3897 44.744H13.0057C13.0457 44.316 13.3417 44.08 13.6977 44.08ZM14.7217 45.324H14.3297C14.2497 45.56 14.0417 45.728 13.7137 45.728C13.3417 45.728 13.0297 45.484 13.0017 45.04H14.7537C14.7617 44.964 14.7657 44.9 14.7657 44.82C14.7657 44.22 14.3497 43.772 13.7137 43.772C13.0737 43.772 12.6297 44.208 12.6297 44.9C12.6297 45.596 13.0897 46.036 13.7137 46.036C14.2577 46.036 14.6097 45.724 14.7217 45.324ZM15.7301 44.808C15.7301 44.3 15.9941 44.144 16.3421 44.144H16.4381V43.768C16.0901 43.768 15.8541 43.92 15.7301 44.164V43.808H15.3661V46H15.7301V44.808ZM17.0583 45.4C17.0583 45.84 17.2783 46 17.6663 46H17.9943V45.692H17.7263C17.5023 45.692 17.4223 45.616 17.4223 45.4V44.108H17.9943V43.808H17.4223V43.256H17.0583V43.808H16.7743V44.108H17.0583V45.4ZM21.8218 44.9C21.8218 44.208 21.3378 43.772 20.7138 43.772C20.0938 43.772 19.6058 44.208 19.6058 44.9C19.6058 45.596 20.0778 46.036 20.6978 46.036C21.3218 46.036 21.8218 45.596 21.8218 44.9ZM19.9778 44.9C19.9778 44.348 20.3258 44.088 20.7098 44.088C21.0858 44.088 21.4498 44.348 21.4498 44.9C21.4498 45.456 21.0778 45.716 20.6978 45.716C20.3178 45.716 19.9778 45.456 19.9778 44.9ZM22.4883 46H22.8523V44.108H23.3123V43.808H22.8523V43.652C22.8523 43.368 22.9603 43.248 23.2883 43.248V42.944C22.7283 42.944 22.4883 43.164 22.4883 43.652V43.808H22.2043V44.108H22.4883V46ZM25.8752 45.584L25.1872 43.808H24.7832L25.6672 45.976L25.2352 47.032H25.6112L26.9312 43.808H26.5552L25.8752 45.584ZM29.4971 44.9C29.4971 44.208 29.0131 43.772 28.3891 43.772C27.7691 43.772 27.2811 44.208 27.2811 44.9C27.2811 45.596 27.7531 46.036 28.3731 46.036C28.9971 46.036 29.4971 45.596 29.4971 44.9ZM27.6531 44.9C27.6531 44.348 28.0011 44.088 28.3851 44.088C28.7611 44.088 29.1251 44.348 29.1251 44.9C29.1251 45.456 28.7531 45.716 28.3731 45.716C27.9931 45.716 27.6531 45.456 27.6531 44.9ZM32.0397 43.808H31.6757V45.012C31.6757 45.484 31.4237 45.716 31.0477 45.716C30.6797 45.716 30.4357 45.488 30.4357 45.044V43.808H30.0757V45.092C30.0757 45.72 30.4717 46.032 30.9757 46.032C31.2677 46.032 31.5357 45.904 31.6757 45.676V46H32.0397V43.808ZM33.1382 44.808C33.1382 44.3 33.4022 44.144 33.7502 44.144H33.8462V43.768C33.4982 43.768 33.2622 43.92 33.1382 44.164V43.808H32.7742V46H33.1382V44.808ZM35.5728 46H35.9368V44.788C35.9368 44.316 36.1928 44.084 36.5648 44.084C36.9328 44.084 37.1768 44.312 37.1768 44.76V46H37.5368V44.708C37.5368 44.08 37.1488 43.768 36.6608 43.768C36.3528 43.768 36.0808 43.892 35.9368 44.124V43.04H35.5728V46ZM38.1154 44.896C38.1154 45.576 38.5674 46.036 39.1514 46.036C39.5554 46.036 39.8394 45.828 39.9714 45.592V46H40.3394V43.808H39.9714V44.208C39.8434 43.98 39.5634 43.772 39.1554 43.772C38.5674 43.772 38.1154 44.212 38.1154 44.896ZM39.9714 44.9C39.9714 45.416 39.6274 45.716 39.2274 45.716C38.8274 45.716 38.4874 45.412 38.4874 44.896C38.4874 44.38 38.8274 44.088 39.2274 44.088C39.6274 44.088 39.9714 44.392 39.9714 44.9ZM41.0746 46H41.4386V43.808H41.0746V46ZM41.2626 43.452C41.3946 43.452 41.5026 43.344 41.5026 43.204C41.5026 43.064 41.3946 42.956 41.2626 42.956C41.1226 42.956 41.0146 43.064 41.0146 43.204C41.0146 43.344 41.1226 43.452 41.2626 43.452ZM42.5429 44.808C42.5429 44.3 42.8069 44.144 43.1549 44.144H43.2509V43.768C42.9029 43.768 42.6669 43.92 42.5429 44.164V43.808H42.1789V46H42.5429V44.808Z" fill="#636363"/>
<path d="M24.9628 10.7894C23.2949 8.28865 24.2956 1.11641 22.7948 0.683942C21.4609 0.283343 17.3241 3.0187 15.2899 6.65431C13.2548 10.2903 10.7537 15.7258 15.8238 19.1623C18.5915 21.2962 15.0238 22.2971 14.3893 20.5964C14.3302 24.0555 17.7282 24.1444 18.2252 21.6969C18.5709 19.9929 16.4998 16.4181 15.8573 14.6924C14.2891 10.4902 18.9255 4.85266 18.9255 4.85266C18.9255 4.85266 14.7896 11.6574 16.457 14.9598C22.1612 23.365 18.3643 23.1647 16.8904 24.1663C22.4609 24.4328 24.3756 19.5203 24.6958 18.8623C25.4288 16.8943 24.9786 13.392 23.1611 11.7253C22.7278 11.3414 22.3276 11.8083 20.818 11.7253C19.3085 11.641 20.126 10.2241 20.126 10.2241C20.126 10.2241 19.6051 9.78195 19.5921 9.59044C19.5796 9.39929 20.0582 9.25688 20.0582 9.25688C20.0582 9.25688 19.5913 9.00623 19.5582 8.79003C19.5255 8.57168 20.0594 8.05494 20.0594 8.05494C20.0594 8.05494 19.3545 7.72971 19.3416 7.40448C19.329 7.07932 20.1106 6.54284 20.8591 4.98674C21.4257 3.81078 21.393 1.85157 22.2932 1.40066C22.8271 2.3185 20.6265 9.32263 24.2281 11.5576C24.8949 11.9243 29.1645 15.2598 25.6618 19.5621C29.5316 16.8607 26.0113 12.3295 24.9628 10.7894Z" fill="#122947"/>
<path d="M27.7975 0.216249C29.4655 2.18515 27.7639 9.62305 31.7 12.0907C37.0358 15.8935 33.2749 21.0197 32.5005 22.3976C33.8349 18.5287 33.7351 16.5271 33.1006 14.9598C32.4661 13.3927 28.4647 9.22331 27.831 7.12111C27.1974 5.01942 26.9971 -0.782845 23.9268 0.273672C26.764 3.85308 25.0458 7.13497 28.9147 12.0571C32.7837 16.9789 31.9992 23.898 28.7656 25.498C33.818 18.8111 29.3656 13.591 28.0648 11.5223C27.3766 10.4281 25.9309 9.52162 25.7967 6.98739C25.6634 4.45193 23.9016 0.0652973 23.1954 0.316811C25.0298 3.95235 23.1284 9.05556 27.2308 13.9589C30.0319 17.0274 31.2674 23.6984 26.5318 27C31.5013 26.7996 34.3695 21.4974 35.5698 18.0609C37.1707 13.2912 32.601 9.18972 31.7343 7.52135C30.867 5.85249 30.3992 0.250559 27.7975 0.216249Z" fill="#122947"/>
<path d="M34.201 5.60277C32.6001 3.05138 30.3799 1.55522 29.55 0.925354C31.8248 4.85261 31.674 6.60351 32.4996 7.8051C33.3252 9.00539 34.7761 9.28152 36.1523 13.5738C36.2017 12.9636 35.802 8.15538 34.201 5.60277Z" fill="#122947"/>
<path d="M27.4345 3.05219C27.5468 3.67624 28.0967 6.904 28.5224 7.50501C28.2484 3.55264 28.6238 3.77723 28.2978 2.30124C27.9718 0.824742 27.3968 0.024692 25.4958 0C27.3968 1.60089 27.3222 2.42822 27.4345 3.05219Z" fill="#122947"/>
</svg>
